<svg width="560" height="560" viewBox="0 0 560 560" fill="none" xmlns="http://www.w3.org/2000/svg">
  <g clip-path="url(#clip0_401_2)">
    <path
      d="M280 560C434.644 560 560 434.644 560 280C560 125.356 434.644 0 280 0C125.356 0 0 125.356 0 280C0 434.644 125.356 560 280 560Z"
      fill="#070A0E"
    />
    <path
      fill-rule="evenodd"
      clip-rule="evenodd"
      d="M113.02 412.417C101.221 405.195 94 392.369 94 378.556V301.441C94 292.285 101.458 284.866 110.613 284.905C113.533 284.905 116.413 285.695 118.939 287.155L292.916 388.62C303.097 394.54 309.371 405.432 309.371 417.232V497.11C309.41 508.081 300.532 517 289.562 517C285.892 517 282.262 515.974 279.145 514.08L113.02 412.417ZM372.349 266.041C382.529 271.961 388.764 282.893 388.803 294.653V456.776C388.803 461.551 386.238 465.972 382.056 468.3L343.977 489.73C343.504 490.006 342.991 490.203 342.438 490.361V400.341C342.438 388.699 336.322 377.885 326.299 371.887L173.511 280.485V178.863C173.511 169.707 180.969 162.287 190.124 162.327C193.044 162.327 195.924 163.116 198.45 164.576L372.349 266.041ZM448.506 146.304C458.726 152.224 465 163.155 465 174.956V411.746C464.961 416.601 462.277 421.06 458.016 423.389L421.91 442.884V278.039C421.91 266.396 415.794 255.622 405.85 249.624L249.668 155.933V59.5594C249.668 56.639 250.458 53.7581 251.878 51.2323C256.495 43.3393 266.636 40.6556 274.528 45.2336L448.506 146.304Z"
      fill="#00D395"
    />
  </g>
  <defs>
    <clipPath id="clip0_401_2">
      <rect width="560" height="560" fill="white" />
    </clipPath>
  </defs>
</svg>
